<?xml version="1.0" encoding="UTF-8" standalone="no"?>
<!DOCTYPE svg PUBLIC "-//W3C//DTD SVG 1.1//EN"
 "http://www.w3.org/Graphics/SVG/1.1/DTD/svg11.dtd">
<!-- Generated by graphviz version 12.2.1 (20250203.1708)
 -->
<!-- Title: snakemake_dag Pages: 1 -->
<svg width="1088pt" height="836pt"
 viewBox="0.00 0.00 1088.00 836.00" xmlns="http://www.w3.org/2000/svg" xmlns:xlink="http://www.w3.org/1999/xlink">
<g id="graph0" class="graph" transform="scale(1 1) rotate(0) translate(4 832)">
<title>snakemake_dag</title>
<polygon fill="white" stroke="none" points="-4,4 -4,-832 1084,-832 1084,4 -4,4"/>
<!-- 0 -->
<g id="node1" class="node">
<title>0</title>
<path fill="none" stroke="#d89556" stroke-width="2" d="M525,-36C525,-36 495,-36 495,-36 489,-36 483,-30 483,-24 483,-24 483,-12 483,-12 483,-6 489,0 495,0 495,0 525,0 525,0 531,0 537,-6 537,-12 537,-12 537,-24 537,-24 537,-30 531,-36 525,-36"/>
<text text-anchor="middle" x="510" y="-14.88" font-family="sans" font-size="10.00">all</text>
</g>
<!-- 1 -->
<g id="node2" class="node">
<title>1</title>
<path fill="none" stroke="#56d873" stroke-width="2" d="M106,-108C106,-108 12,-108 12,-108 6,-108 0,-102 0,-96 0,-96 0,-84 0,-84 0,-78 6,-72 12,-72 12,-72 106,-72 106,-72 112,-72 118,-78 118,-84 118,-84 118,-96 118,-96 118,-102 112,-108 106,-108"/>
<text text-anchor="middle" x="59" y="-86.88" font-family="sans" font-size="10.00">create_sample_table</text>
</g>
<!-- 1&#45;&gt;0 -->
<g id="edge12" class="edge">
<title>1&#45;&gt;0</title>
<path fill="none" stroke="grey" stroke-width="2" d="M118.67,-74.65C123.17,-73.7 127.65,-72.81 132,-72 254.15,-49.26 400.15,-31.4 469.53,-23.47"/>
<polygon fill="grey" stroke="grey" stroke-width="2" points="469.8,-26.96 479.35,-22.36 469.02,-20 469.8,-26.96"/>
</g>
<!-- 2 -->
<g id="node3" class="node">
<title>2</title>
<path fill="none" stroke="#56d863" stroke-width="2" d="M973.25,-756C973.25,-756 916.75,-756 916.75,-756 910.75,-756 904.75,-750 904.75,-744 904.75,-744 904.75,-732 904.75,-732 904.75,-726 910.75,-720 916.75,-720 916.75,-720 973.25,-720 973.25,-720 979.25,-720 985.25,-726 985.25,-732 985.25,-732 985.25,-744 985.25,-744 985.25,-750 979.25,-756 973.25,-756"/>
<text text-anchor="middle" x="945" y="-734.88" font-family="sans" font-size="10.00">extract_fastq</text>
</g>
<!-- 2&#45;&gt;0 -->
<g id="edge11" class="edge">
<title>2&#45;&gt;0</title>
<path fill="none" stroke="grey" stroke-width="2" d="M980.82,-719.07C1020.82,-696.21 1080,-652.66 1080,-595 1080,-595 1080,-595 1080,-161 1080,-103.47 1038.19,-96.22 986,-72 908.84,-36.19 650.98,-23.77 550.54,-20.22"/>
<polygon fill="grey" stroke="grey" stroke-width="2" points="550.85,-16.73 540.74,-19.89 550.62,-23.73 550.85,-16.73"/>
</g>
<!-- 4 -->
<g id="node5" class="node">
<title>4</title>
<path fill="none" stroke="#b6d856" stroke-width="2" d="M898,-180C898,-180 868,-180 868,-180 862,-180 856,-174 856,-168 856,-168 856,-156 856,-156 856,-150 862,-144 868,-144 868,-144 898,-144 898,-144 904,-144 910,-150 910,-156 910,-156 910,-168 910,-168 910,-174 904,-180 898,-180"/>
<text text-anchor="middle" x="883" y="-158.88" font-family="sans" font-size="10.00">fastqc</text>
</g>
<!-- 2&#45;&gt;4 -->
<g id="edge21" class="edge">
<title>2&#45;&gt;4</title>
<path fill="none" stroke="grey" stroke-width="2" d="M927.11,-719.36C918.29,-709.69 908.24,-697.04 902,-684 884.55,-647.51 883,-635.45 883,-595 883,-595 883,-595 883,-305 883,-266.65 883,-222.48 883,-193.72"/>
<polygon fill="grey" stroke="grey" stroke-width="2" points="886.5,-193.96 883,-183.96 879.5,-193.96 886.5,-193.96"/>
</g>
<!-- 6 -->
<g id="node7" class="node">
<title>6</title>
<path fill="none" stroke="#5682d8" stroke-width="2" d="M967.25,-684C967.25,-684 922.75,-684 922.75,-684 916.75,-684 910.75,-678 910.75,-672 910.75,-672 910.75,-660 910.75,-660 910.75,-654 916.75,-648 922.75,-648 922.75,-648 967.25,-648 967.25,-648 973.25,-648 979.25,-654 979.25,-660 979.25,-660 979.25,-672 979.25,-672 979.25,-678 973.25,-684 967.25,-684"/>
<text text-anchor="middle" x="945" y="-662.88" font-family="sans" font-size="10.00">trim_reads</text>
</g>
<!-- 2&#45;&gt;6 -->
<g id="edge23" class="edge">
<title>2&#45;&gt;6</title>
<path fill="none" stroke="grey" stroke-width="2" d="M945,-719.34C945,-712.75 945,-705.08 945,-697.67"/>
<polygon fill="grey" stroke="grey" stroke-width="2" points="948.5,-697.93 945,-687.93 941.5,-697.93 948.5,-697.93"/>
</g>
<!-- 3 -->
<g id="node4" class="node">
<title>3</title>
<path fill="none" stroke="#5692d8" stroke-width="2" d="M971.38,-828C971.38,-828 918.62,-828 918.62,-828 912.62,-828 906.62,-822 906.62,-816 906.62,-816 906.62,-804 906.62,-804 906.62,-798 912.62,-792 918.62,-792 918.62,-792 971.38,-792 971.38,-792 977.38,-792 983.38,-798 983.38,-804 983.38,-804 983.38,-816 983.38,-816 983.38,-822 977.38,-828 971.38,-828"/>
<text text-anchor="middle" x="945" y="-806.88" font-family="sans" font-size="10.00">prefetch_sra</text>
</g>
<!-- 3&#45;&gt;2 -->
<g id="edge20" class="edge">
<title>3&#45;&gt;2</title>
<path fill="none" stroke="grey" stroke-width="2" d="M945,-791.34C945,-784.75 945,-777.08 945,-769.67"/>
<polygon fill="grey" stroke="grey" stroke-width="2" points="948.5,-769.93 945,-759.93 941.5,-769.93 948.5,-769.93"/>
</g>
<!-- 4&#45;&gt;0 -->
<g id="edge7" class="edge">
<title>4&#45;&gt;0</title>
<path fill="none" stroke="grey" stroke-width="2" d="M889.69,-143.27C895.92,-123.42 901.93,-91.49 885,-72 842.03,-22.53 638.68,-17.97 550.71,-18.37"/>
<polygon fill="grey" stroke="grey" stroke-width="2" points="550.87,-14.87 540.9,-18.44 550.92,-21.87 550.87,-14.87"/>
</g>
<!-- 5 -->
<g id="node6" class="node">
<title>5</title>
<path fill="none" stroke="#c6d856" stroke-width="2" d="M864,-108C864,-108 834,-108 834,-108 828,-108 822,-102 822,-96 822,-96 822,-84 822,-84 822,-78 828,-72 834,-72 834,-72 864,-72 864,-72 870,-72 876,-78 876,-84 876,-84 876,-96 876,-96 876,-102 870,-108 864,-108"/>
<text text-anchor="middle" x="849" y="-86.88" font-family="sans" font-size="10.00">multiqc</text>
</g>
<!-- 4&#45;&gt;5 -->
<g id="edge22" class="edge">
<title>4&#45;&gt;5</title>
<path fill="none" stroke="grey" stroke-width="2" d="M874.42,-143.34C871.06,-136.43 867.12,-128.31 863.36,-120.56"/>
<polygon fill="grey" stroke="grey" stroke-width="2" points="866.54,-119.09 859.02,-111.62 860.24,-122.15 866.54,-119.09"/>
</g>
<!-- 5&#45;&gt;0 -->
<g id="edge6" class="edge">
<title>5&#45;&gt;0</title>
<path fill="none" stroke="grey" stroke-width="2" d="M821.06,-76.47C816.74,-74.81 812.29,-73.25 808,-72 718.12,-45.71 608.96,-30.34 550.93,-23.43"/>
<polygon fill="grey" stroke="grey" stroke-width="2" points="551.33,-19.95 541,-22.27 550.53,-26.9 551.33,-19.95"/>
</g>
<!-- 6&#45;&gt;0 -->
<g id="edge18" class="edge">
<title>6&#45;&gt;0</title>
<path fill="none" stroke="grey" stroke-width="2" d="M944.38,-647.07C943.5,-620.14 942,-567.63 942,-523 942,-523 942,-523 942,-161 942,-118.16 938.97,-98.1 905,-72 850.14,-29.85 639.94,-21.21 550.58,-19.45"/>
<polygon fill="grey" stroke="grey" stroke-width="2" points="550.9,-15.95 540.84,-19.28 550.78,-22.95 550.9,-15.95"/>
</g>
<!-- 7 -->
<g id="node8" class="node">
<title>7</title>
<path fill="none" stroke="#d8ac56" stroke-width="2" d="M1040.38,-540C1040.38,-540 981.62,-540 981.62,-540 975.62,-540 969.62,-534 969.62,-528 969.62,-528 969.62,-516 969.62,-516 969.62,-510 975.62,-504 981.62,-504 981.62,-504 1040.38,-504 1040.38,-504 1046.38,-504 1052.38,-510 1052.38,-516 1052.38,-516 1052.38,-528 1052.38,-528 1052.38,-534 1046.38,-540 1040.38,-540"/>
<text text-anchor="middle" x="1011" y="-518.88" font-family="sans" font-size="10.00">multiqc_fastp</text>
</g>
<!-- 6&#45;&gt;7 -->
<g id="edge24" class="edge">
<title>6&#45;&gt;7</title>
<path fill="none" stroke="grey" stroke-width="2" d="M953.36,-647.02C964.42,-623.22 984.05,-580.97 997.3,-552.48"/>
<polygon fill="grey" stroke="grey" stroke-width="2" points="1000.39,-554.13 1001.43,-543.58 994.04,-551.18 1000.39,-554.13"/>
</g>
<!-- 12 -->
<g id="node13" class="node">
<title>12</title>
<path fill="none" stroke="#9fd856" stroke-width="2" d="M534,-612C534,-612 494,-612 494,-612 488,-612 482,-606 482,-600 482,-600 482,-588 482,-588 482,-582 488,-576 494,-576 494,-576 534,-576 534,-576 540,-576 546,-582 546,-588 546,-588 546,-600 546,-600 546,-606 540,-612 534,-612"/>
<text text-anchor="middle" x="514" y="-590.88" font-family="sans" font-size="10.00">star_align</text>
</g>
<!-- 6&#45;&gt;12 -->
<g id="edge28" class="edge">
<title>6&#45;&gt;12</title>
<path fill="none" stroke="grey" stroke-width="2" d="M910.09,-659.33C832.59,-646.74 646.19,-616.47 559.61,-602.41"/>
<polygon fill="grey" stroke="grey" stroke-width="2" points="560.27,-598.97 549.84,-600.82 559.15,-605.88 560.27,-598.97"/>
</g>
<!-- 7&#45;&gt;0 -->
<g id="edge4" class="edge">
<title>7&#45;&gt;0</title>
<path fill="none" stroke="grey" stroke-width="2" d="M1007.68,-503.14C1003,-476.3 995,-423.9 995,-379 995,-379 995,-379 995,-161 995,-117.81 990.69,-97.72 956,-72 892.29,-24.76 648.2,-19.13 550.64,-18.81"/>
<polygon fill="grey" stroke="grey" stroke-width="2" points="550.91,-15.31 540.9,-18.8 550.9,-22.31 550.91,-15.31"/>
</g>
<!-- 8 -->
<g id="node9" class="node">
<title>8</title>
<path fill="none" stroke="#56a9d8" stroke-width="2" d="M301.5,-828C301.5,-828 210.5,-828 210.5,-828 204.5,-828 198.5,-822 198.5,-816 198.5,-816 198.5,-804 198.5,-804 198.5,-798 204.5,-792 210.5,-792 210.5,-792 301.5,-792 301.5,-792 307.5,-792 313.5,-798 313.5,-804 313.5,-804 313.5,-816 313.5,-816 313.5,-822 307.5,-828 301.5,-828"/>
<text text-anchor="middle" x="256" y="-806.88" font-family="sans" font-size="10.00">download_reference</text>
</g>
<!-- 8&#45;&gt;0 -->
<g id="edge17" class="edge">
<title>8&#45;&gt;0</title>
<path fill="none" stroke="grey" stroke-width="2" d="M229.09,-791.12C196.53,-767.1 146,-721.1 146,-667 146,-667 146,-667 146,-161 146,-118.33 148.64,-98.61 182,-72 225.8,-37.06 392,-24.63 469.61,-20.66"/>
<polygon fill="grey" stroke="grey" stroke-width="2" points="469.31,-24.18 479.13,-20.21 468.97,-17.19 469.31,-24.18"/>
</g>
<!-- 9 -->
<g id="node10" class="node">
<title>9</title>
<path fill="none" stroke="#56d88a" stroke-width="2" d="M404.38,-756C404.38,-756 333.62,-756 333.62,-756 327.62,-756 321.62,-750 321.62,-744 321.62,-744 321.62,-732 321.62,-732 321.62,-726 327.62,-720 333.62,-720 333.62,-720 404.38,-720 404.38,-720 410.38,-720 416.38,-726 416.38,-732 416.38,-732 416.38,-744 416.38,-744 416.38,-750 410.38,-756 404.38,-756"/>
<text text-anchor="middle" x="369" y="-734.88" font-family="sans" font-size="10.00">index_reference</text>
</g>
<!-- 8&#45;&gt;9 -->
<g id="edge25" class="edge">
<title>8&#45;&gt;9</title>
<path fill="none" stroke="grey" stroke-width="2" d="M284.81,-791.15C298.35,-782.76 314.72,-772.62 329.41,-763.52"/>
<polygon fill="grey" stroke="grey" stroke-width="2" points="331.01,-766.65 337.67,-758.41 327.33,-760.7 331.01,-766.65"/>
</g>
<!-- 11 -->
<g id="node12" class="node">
<title>11</title>
<path fill="none" stroke="#78d856" stroke-width="2" d="M355.5,-684C355.5,-684 312.5,-684 312.5,-684 306.5,-684 300.5,-678 300.5,-672 300.5,-672 300.5,-660 300.5,-660 300.5,-654 306.5,-648 312.5,-648 312.5,-648 355.5,-648 355.5,-648 361.5,-648 367.5,-654 367.5,-660 367.5,-660 367.5,-672 367.5,-672 367.5,-678 361.5,-684 355.5,-684"/>
<text text-anchor="middle" x="334" y="-662.88" font-family="sans" font-size="10.00">star_index</text>
</g>
<!-- 8&#45;&gt;11 -->
<g id="edge27" class="edge">
<title>8&#45;&gt;11</title>
<path fill="none" stroke="grey" stroke-width="2" d="M265.88,-791.02C279.01,-767.12 302.36,-724.59 318.02,-696.1"/>
<polygon fill="grey" stroke="grey" stroke-width="2" points="321,-697.94 322.74,-687.49 314.86,-694.57 321,-697.94"/>
</g>
<!-- 19 -->
<g id="node20" class="node">
<title>19</title>
<path fill="none" stroke="#88d856" stroke-width="2" d="M266.5,-324C266.5,-324 205.5,-324 205.5,-324 199.5,-324 193.5,-318 193.5,-312 193.5,-312 193.5,-300 193.5,-300 193.5,-294 199.5,-288 205.5,-288 205.5,-288 266.5,-288 266.5,-288 272.5,-288 278.5,-294 278.5,-300 278.5,-300 278.5,-312 278.5,-312 278.5,-318 272.5,-324 266.5,-324"/>
<text text-anchor="middle" x="236" y="-302.88" font-family="sans" font-size="10.00">bcftools_norm</text>
</g>
<!-- 8&#45;&gt;19 -->
<g id="edge38" class="edge">
<title>8&#45;&gt;19</title>
<path fill="none" stroke="grey" stroke-width="2" d="M244.28,-791C228.4,-764.83 202,-714.21 202,-667 202,-667 202,-667 202,-449 202,-409.39 214.67,-365.23 224.54,-336.83"/>
<polygon fill="grey" stroke="grey" stroke-width="2" points="227.82,-338.05 227.93,-327.45 221.24,-335.67 227.82,-338.05"/>
</g>
<!-- 21 -->
<g id="node22" class="node">
<title>21</title>
<path fill="none" stroke="#56c1d8" stroke-width="2" d="M317.62,-468C317.62,-468 242.38,-468 242.38,-468 236.38,-468 230.38,-462 230.38,-456 230.38,-456 230.38,-444 230.38,-444 230.38,-438 236.38,-432 242.38,-432 242.38,-432 317.62,-432 317.62,-432 323.62,-432 329.62,-438 329.62,-444 329.62,-444 329.62,-456 329.62,-456 329.62,-462 323.62,-468 317.62,-468"/>
<text text-anchor="middle" x="280" y="-446.88" font-family="sans" font-size="10.00">bcftools_mpileup</text>
</g>
<!-- 8&#45;&gt;21 -->
<g id="edge41" class="edge">
<title>8&#45;&gt;21</title>
<path fill="none" stroke="grey" stroke-width="2" d="M256,-791.07C256,-764.13 256,-711.62 256,-667 256,-667 256,-667 256,-593 256,-553.93 264.94,-509.65 271.91,-481.08"/>
<polygon fill="grey" stroke="grey" stroke-width="2" points="275.22,-482.26 274.28,-471.7 268.44,-480.54 275.22,-482.26"/>
</g>
<!-- 9&#45;&gt;0 -->
<g id="edge13" class="edge">
<title>9&#45;&gt;0</title>
<path fill="none" stroke="grey" stroke-width="2" d="M374.59,-719.27C382.5,-692.6 396,-640.42 396,-595 396,-595 396,-595 396,-161 396,-111.51 438.64,-69.44 471.76,-44.23"/>
<polygon fill="grey" stroke="grey" stroke-width="2" points="473.67,-47.17 479.67,-38.44 469.53,-41.52 473.67,-47.17"/>
</g>
<!-- 9&#45;&gt;11 -->
<g id="edge26" class="edge">
<title>9&#45;&gt;11</title>
<path fill="none" stroke="grey" stroke-width="2" d="M360.17,-719.34C356.67,-712.34 352.56,-704.12 348.64,-696.28"/>
<polygon fill="grey" stroke="grey" stroke-width="2" points="351.91,-694.99 344.3,-687.61 345.65,-698.12 351.91,-694.99"/>
</g>
<!-- 10 -->
<g id="node11" class="node">
<title>10</title>
<path fill="none" stroke="#d85656" stroke-width="2" d="M532,-252C532,-252 474,-252 474,-252 468,-252 462,-246 462,-240 462,-240 462,-228 462,-228 462,-222 468,-216 474,-216 474,-216 532,-216 532,-216 538,-216 544,-222 544,-228 544,-228 544,-240 544,-240 544,-246 538,-252 532,-252"/>
<text text-anchor="middle" x="503" y="-230.88" font-family="sans" font-size="10.00">download_gtf</text>
</g>
<!-- 10&#45;&gt;0 -->
<g id="edge1" class="edge">
<title>10&#45;&gt;0</title>
<path fill="none" stroke="grey" stroke-width="2" d="M499.67,-215.41C497.89,-205.13 495.89,-191.88 495,-180 491.58,-134.44 498.57,-81.74 504.12,-49.39"/>
<polygon fill="grey" stroke="grey" stroke-width="2" points="507.51,-50.29 505.84,-39.83 500.62,-49.05 507.51,-50.29"/>
</g>
<!-- 16 -->
<g id="node17" class="node">
<title>16</title>
<path fill="none" stroke="#56d8b1" stroke-width="2" d="M608.25,-180C608.25,-180 515.75,-180 515.75,-180 509.75,-180 503.75,-174 503.75,-168 503.75,-168 503.75,-156 503.75,-156 503.75,-150 509.75,-144 515.75,-144 515.75,-144 608.25,-144 608.25,-144 614.25,-144 620.25,-150 620.25,-156 620.25,-156 620.25,-168 620.25,-168 620.25,-174 614.25,-180 608.25,-180"/>
<text text-anchor="middle" x="562" y="-158.88" font-family="sans" font-size="10.00">featurecounts_quant</text>
</g>
<!-- 10&#45;&gt;16 -->
<g id="edge34" class="edge">
<title>10&#45;&gt;16</title>
<path fill="none" stroke="grey" stroke-width="2" d="M517.89,-215.34C524.2,-207.85 531.7,-198.95 538.71,-190.63"/>
<polygon fill="grey" stroke="grey" stroke-width="2" points="541.19,-193.12 544.96,-183.22 535.84,-188.61 541.19,-193.12"/>
</g>
<!-- 11&#45;&gt;0 -->
<g id="edge9" class="edge">
<title>11&#45;&gt;0</title>
<path fill="none" stroke="grey" stroke-width="2" d="M338.97,-647.23C346,-620.5 358,-568.25 358,-523 358,-523 358,-523 358,-161 358,-120.03 354.96,-102.78 382,-72 404.51,-46.38 441.35,-32.88 469.74,-25.94"/>
<polygon fill="grey" stroke="grey" stroke-width="2" points="470.15,-29.43 479.15,-23.84 468.63,-22.6 470.15,-29.43"/>
</g>
<!-- 11&#45;&gt;12 -->
<g id="edge29" class="edge">
<title>11&#45;&gt;12</title>
<path fill="none" stroke="grey" stroke-width="2" d="M368.28,-651.67C396.92,-640.53 437.96,-624.57 469.19,-612.42"/>
<polygon fill="grey" stroke="grey" stroke-width="2" points="470.19,-615.79 478.24,-608.91 467.65,-609.27 470.19,-615.79"/>
</g>
<!-- 12&#45;&gt;0 -->
<g id="edge8" class="edge">
<title>12&#45;&gt;0</title>
<path fill="none" stroke="grey" stroke-width="2" d="M495.85,-575.09C472.24,-549.79 434,-501.08 434,-451 434,-451 434,-451 434,-161 434,-117.06 462.64,-73.56 484.75,-46.52"/>
<polygon fill="grey" stroke="grey" stroke-width="2" points="487.36,-48.85 491.17,-38.96 482.03,-44.31 487.36,-48.85"/>
</g>
<!-- 13 -->
<g id="node14" class="node">
<title>13</title>
<path fill="none" stroke="#566bd8" stroke-width="2" d="M607,-540C607,-540 537,-540 537,-540 531,-540 525,-534 525,-528 525,-528 525,-516 525,-516 525,-510 531,-504 537,-504 537,-504 607,-504 607,-504 613,-504 619,-510 619,-516 619,-516 619,-528 619,-528 619,-534 613,-540 607,-540"/>
<text text-anchor="middle" x="572" y="-518.88" font-family="sans" font-size="10.00">sort_index_bam</text>
</g>
<!-- 12&#45;&gt;13 -->
<g id="edge30" class="edge">
<title>12&#45;&gt;13</title>
<path fill="none" stroke="grey" stroke-width="2" d="M528.64,-575.34C534.77,-567.93 542.05,-559.14 548.88,-550.9"/>
<polygon fill="grey" stroke="grey" stroke-width="2" points="551.55,-553.17 555.24,-543.23 546.16,-548.7 551.55,-553.17"/>
</g>
<!-- 13&#45;&gt;0 -->
<g id="edge19" class="edge">
<title>13&#45;&gt;0</title>
<path fill="none" stroke="grey" stroke-width="2" d="M590.15,-503.09C613.76,-477.79 652,-429.08 652,-379 652,-379 652,-379 652,-161 652,-120.46 657.84,-103.24 632,-72 611.57,-47.3 577.44,-33.81 550.46,-26.62"/>
<polygon fill="grey" stroke="grey" stroke-width="2" points="551.37,-23.24 540.83,-24.3 549.72,-30.05 551.37,-23.24"/>
</g>
<!-- 14 -->
<g id="node15" class="node">
<title>14</title>
<path fill="none" stroke="#56d8c9" stroke-width="2" d="M767.62,-180C767.62,-180 692.38,-180 692.38,-180 686.38,-180 680.38,-174 680.38,-168 680.38,-168 680.38,-156 680.38,-156 680.38,-150 686.38,-144 692.38,-144 692.38,-144 767.62,-144 767.62,-144 773.62,-144 779.62,-150 779.62,-156 779.62,-156 779.62,-168 779.62,-168 779.62,-174 773.62,-180 767.62,-180"/>
<text text-anchor="middle" x="730" y="-158.88" font-family="sans" font-size="10.00">add_read_groups</text>
</g>
<!-- 13&#45;&gt;14 -->
<g id="edge31" class="edge">
<title>13&#45;&gt;14</title>
<path fill="none" stroke="grey" stroke-width="2" d="M615.97,-503.07C633.18,-494.42 652.09,-482.69 666,-468 696.34,-435.96 710,-423.13 710,-379 710,-379 710,-379 710,-305 710,-266.27 717.38,-222.18 723.18,-193.55"/>
<polygon fill="grey" stroke="grey" stroke-width="2" points="726.6,-194.29 725.23,-183.78 719.75,-192.85 726.6,-194.29"/>
</g>
<!-- 13&#45;&gt;16 -->
<g id="edge33" class="edge">
<title>13&#45;&gt;16</title>
<path fill="none" stroke="grey" stroke-width="2" d="M572,-503.07C572,-476.13 572,-423.62 572,-379 572,-379 572,-379 572,-305 572,-266.56 568.31,-222.41 565.41,-193.68"/>
<polygon fill="grey" stroke="grey" stroke-width="2" points="568.91,-193.5 564.39,-183.91 561.95,-194.23 568.91,-193.5"/>
</g>
<!-- 13&#45;&gt;21 -->
<g id="edge40" class="edge">
<title>13&#45;&gt;21</title>
<path fill="none" stroke="grey" stroke-width="2" d="M524.11,-509.52C474.68,-497.67 397.32,-479.13 342.97,-466.1"/>
<polygon fill="grey" stroke="grey" stroke-width="2" points="343.85,-462.71 333.31,-463.78 342.22,-469.51 343.85,-462.71"/>
</g>
<!-- 14&#45;&gt;0 -->
<g id="edge15" class="edge">
<title>14&#45;&gt;0</title>
<path fill="none" stroke="grey" stroke-width="2" d="M749.9,-143.25C768.82,-124.24 791.91,-93.87 774,-72 746.22,-38.08 617.41,-25.41 550.54,-21.07"/>
<polygon fill="grey" stroke="grey" stroke-width="2" points="550.87,-17.58 540.68,-20.47 550.45,-24.57 550.87,-17.58"/>
</g>
<!-- 15 -->
<g id="node16" class="node">
<title>15</title>
<path fill="none" stroke="#d86e56" stroke-width="2" d="M753.5,-108C753.5,-108 692.5,-108 692.5,-108 686.5,-108 680.5,-102 680.5,-96 680.5,-96 680.5,-84 680.5,-84 680.5,-78 686.5,-72 692.5,-72 692.5,-72 753.5,-72 753.5,-72 759.5,-72 765.5,-78 765.5,-84 765.5,-84 765.5,-96 765.5,-96 765.5,-102 759.5,-108 753.5,-108"/>
<text text-anchor="middle" x="723" y="-86.88" font-family="sans" font-size="10.00">index_rg_bam</text>
</g>
<!-- 14&#45;&gt;15 -->
<g id="edge32" class="edge">
<title>14&#45;&gt;15</title>
<path fill="none" stroke="grey" stroke-width="2" d="M728.23,-143.34C727.58,-136.75 726.81,-129.08 726.07,-121.67"/>
<polygon fill="grey" stroke="grey" stroke-width="2" points="729.57,-121.52 725.09,-111.91 722.6,-122.21 729.57,-121.52"/>
</g>
<!-- 15&#45;&gt;0 -->
<g id="edge2" class="edge">
<title>15&#45;&gt;0</title>
<path fill="none" stroke="grey" stroke-width="2" d="M679.64,-74.75C641.67,-62.27 586.93,-44.28 549.99,-32.14"/>
<polygon fill="grey" stroke="grey" stroke-width="2" points="551.19,-28.85 540.6,-29.06 549.01,-35.5 551.19,-28.85"/>
</g>
<!-- 16&#45;&gt;0 -->
<g id="edge14" class="edge">
<title>16&#45;&gt;0</title>
<path fill="none" stroke="grey" stroke-width="2" d="M548.74,-143.2C541.93,-133.29 534.03,-120.46 529,-108 521.45,-89.3 516.71,-67.11 513.85,-49.57"/>
<polygon fill="grey" stroke="grey" stroke-width="2" points="517.34,-49.3 512.42,-39.92 510.42,-50.33 517.34,-49.3"/>
</g>
<!-- 17 -->
<g id="node18" class="node">
<title>17</title>
<path fill="none" stroke="#d87d56" stroke-width="2" d="M611.5,-108C611.5,-108 550.5,-108 550.5,-108 544.5,-108 538.5,-102 538.5,-96 538.5,-96 538.5,-84 538.5,-84 538.5,-78 544.5,-72 550.5,-72 550.5,-72 611.5,-72 611.5,-72 617.5,-72 623.5,-78 623.5,-84 623.5,-84 623.5,-96 623.5,-96 623.5,-102 617.5,-108 611.5,-108"/>
<text text-anchor="middle" x="581" y="-86.88" font-family="sans" font-size="10.00">merge_counts</text>
</g>
<!-- 16&#45;&gt;17 -->
<g id="edge35" class="edge">
<title>16&#45;&gt;17</title>
<path fill="none" stroke="grey" stroke-width="2" d="M566.79,-143.34C568.6,-136.67 570.72,-128.89 572.75,-121.39"/>
<polygon fill="grey" stroke="grey" stroke-width="2" points="576.11,-122.39 575.35,-111.82 569.35,-120.56 576.11,-122.39"/>
</g>
<!-- 17&#45;&gt;0 -->
<g id="edge3" class="edge">
<title>17&#45;&gt;0</title>
<path fill="none" stroke="grey" stroke-width="2" d="M563.08,-71.34C555.24,-63.6 545.86,-54.36 537.19,-45.81"/>
<polygon fill="grey" stroke="grey" stroke-width="2" points="539.89,-43.56 530.31,-39.03 534.98,-48.54 539.89,-43.56"/>
</g>
<!-- 18 -->
<g id="node19" class="node">
<title>18</title>
<path fill="none" stroke="#56d0d8" stroke-width="2" d="M265,-252C265,-252 207,-252 207,-252 201,-252 195,-246 195,-240 195,-240 195,-228 195,-228 195,-222 201,-216 207,-216 207,-216 265,-216 265,-216 271,-216 277,-222 277,-228 277,-228 277,-240 277,-240 277,-246 271,-252 265,-252"/>
<text text-anchor="middle" x="236" y="-230.88" font-family="sans" font-size="10.00">bcftools_filter</text>
</g>
<!-- 18&#45;&gt;0 -->
<g id="edge16" class="edge">
<title>18&#45;&gt;0</title>
<path fill="none" stroke="grey" stroke-width="2" d="M221.33,-215.09C214.3,-205.35 206.63,-192.71 203,-180 189.81,-133.85 172.08,-108.71 203,-72 236.61,-32.09 393.9,-22.24 469.38,-19.8"/>
<polygon fill="grey" stroke="grey" stroke-width="2" points="469.13,-23.31 479.03,-19.52 468.93,-16.31 469.13,-23.31"/>
</g>
<!-- 22 -->
<g id="node23" class="node">
<title>22</title>
<path fill="none" stroke="#d8d356" stroke-width="2" d="M283.75,-180C283.75,-180 224.25,-180 224.25,-180 218.25,-180 212.25,-174 212.25,-168 212.25,-168 212.25,-156 212.25,-156 212.25,-150 218.25,-144 224.25,-144 224.25,-144 283.75,-144 283.75,-144 289.75,-144 295.75,-150 295.75,-156 295.75,-156 295.75,-168 295.75,-168 295.75,-174 289.75,-180 283.75,-180"/>
<text text-anchor="middle" x="254" y="-158.88" font-family="sans" font-size="10.00">bcftools_stats</text>
</g>
<!-- 18&#45;&gt;22 -->
<g id="edge42" class="edge">
<title>18&#45;&gt;22</title>
<path fill="none" stroke="grey" stroke-width="2" d="M240.54,-215.34C242.26,-208.67 244.26,-200.89 246.19,-193.39"/>
<polygon fill="grey" stroke="grey" stroke-width="2" points="249.54,-194.39 248.64,-183.83 242.76,-192.65 249.54,-194.39"/>
</g>
<!-- 19&#45;&gt;18 -->
<g id="edge36" class="edge">
<title>19&#45;&gt;18</title>
<path fill="none" stroke="grey" stroke-width="2" d="M236,-287.34C236,-280.75 236,-273.08 236,-265.67"/>
<polygon fill="grey" stroke="grey" stroke-width="2" points="239.5,-265.93 236,-255.93 232.5,-265.93 239.5,-265.93"/>
</g>
<!-- 20 -->
<g id="node21" class="node">
<title>20</title>
<path fill="none" stroke="#56d8a2" stroke-width="2" d="M300.38,-396C300.38,-396 247.62,-396 247.62,-396 241.62,-396 235.62,-390 235.62,-384 235.62,-384 235.62,-372 235.62,-372 235.62,-366 241.62,-360 247.62,-360 247.62,-360 300.38,-360 300.38,-360 306.38,-360 312.38,-366 312.38,-372 312.38,-372 312.38,-384 312.38,-384 312.38,-390 306.38,-396 300.38,-396"/>
<text text-anchor="middle" x="274" y="-374.88" font-family="sans" font-size="10.00">bcftools_call</text>
</g>
<!-- 20&#45;&gt;19 -->
<g id="edge37" class="edge">
<title>20&#45;&gt;19</title>
<path fill="none" stroke="grey" stroke-width="2" d="M264.41,-359.34C260.61,-352.34 256.15,-344.12 251.89,-336.28"/>
<polygon fill="grey" stroke="grey" stroke-width="2" points="255.01,-334.68 247.16,-327.56 248.86,-338.02 255.01,-334.68"/>
</g>
<!-- 21&#45;&gt;20 -->
<g id="edge39" class="edge">
<title>21&#45;&gt;20</title>
<path fill="none" stroke="grey" stroke-width="2" d="M278.49,-431.34C277.92,-424.75 277.26,-417.08 276.63,-409.67"/>
<polygon fill="grey" stroke="grey" stroke-width="2" points="280.13,-409.58 275.79,-399.92 273.16,-410.18 280.13,-409.58"/>
</g>
<!-- 22&#45;&gt;0 -->
<g id="edge5" class="edge">
<title>22&#45;&gt;0</title>
<path fill="none" stroke="grey" stroke-width="2" d="M270.03,-143.29C291.12,-120.33 327.46,-82.02 344,-72 383.35,-48.17 434.53,-33.95 469.6,-26.33"/>
<polygon fill="grey" stroke="grey" stroke-width="2" points="470.14,-29.79 479.22,-24.34 468.72,-22.94 470.14,-29.79"/>
</g>
<!-- 23 -->
<g id="node24" class="node">
<title>23</title>
<path fill="none" stroke="#61d856" stroke-width="2" d="M279.5,-108C279.5,-108 224.5,-108 224.5,-108 218.5,-108 212.5,-102 212.5,-96 212.5,-96 212.5,-84 212.5,-84 212.5,-78 218.5,-72 224.5,-72 224.5,-72 279.5,-72 279.5,-72 285.5,-72 291.5,-78 291.5,-84 291.5,-84 291.5,-96 291.5,-96 291.5,-102 285.5,-108 279.5,-108"/>
<text text-anchor="middle" x="252" y="-86.88" font-family="sans" font-size="10.00">plot_vcfstats</text>
</g>
<!-- 22&#45;&gt;23 -->
<g id="edge43" class="edge">
<title>22&#45;&gt;23</title>
<path fill="none" stroke="grey" stroke-width="2" d="M253.5,-143.34C253.31,-136.75 253.09,-129.08 252.88,-121.67"/>
<polygon fill="grey" stroke="grey" stroke-width="2" points="256.38,-121.82 252.6,-111.93 249.39,-122.02 256.38,-121.82"/>
</g>
<!-- 23&#45;&gt;0 -->
<g id="edge10" class="edge">
<title>23&#45;&gt;0</title>
<path fill="none" stroke="grey" stroke-width="2" d="M292.33,-76.06C296.93,-74.65 301.56,-73.27 306,-72 362.49,-55.78 428.4,-39.05 469.67,-28.84"/>
<polygon fill="grey" stroke="grey" stroke-width="2" points="470.35,-32.27 479.22,-26.48 468.68,-25.48 470.35,-32.27"/>
</g>
</g>
</svg>
